<svg xmlns="http://www.w3.org/2000/svg" viewBox="0 0 830 230" width="830" height="230" font-family="-apple-system,BlinkMacSystemFont,'Segoe UI',Helvetica,Arial,sans-serif">
  <defs>
    <marker id="a" viewBox="0 0 10 10" refX="9" refY="5" markerWidth="7" markerHeight="7" orient="auto-start-reverse">
      <path d="M0 0L10 5L0 10z" fill="#64748b"/>
    </marker>
    <marker id="b" viewBox="0 0 10 10" refX="9" refY="5" markerWidth="7" markerHeight="7" orient="auto-start-reverse">
      <path d="M0 0L10 5L0 10z" fill="#d97706"/>
    </marker>
  </defs>

  <!-- Local zone -->
  <rect x="210" y="6" width="600" height="218" rx="12" fill="none" stroke="#94a3b8" stroke-width="1.5" stroke-dasharray="6 4"/>
  <text x="510" y="24" font-size="12" fill="#94a3b8" text-anchor="middle">Your Machine (local only)</text>

  <!-- Telegram -->
  <rect x="14" y="46" width="155" height="86" rx="10" fill="#0088cc"/>
  <g transform="translate(64,56) scale(1.8)">
    <path d="M2.2 7.4l3.2 1.2 1.2 4c.1.3.4.4.6.2l1.8-1.5c.2-.2.5-.2.7 0l3.3 2.4c.3.2.6 0 .7-.3L15.6 3c.1-.4-.3-.6-.6-.5L2.2 8.2c-.4.2-.4.7 0 .9z" fill="#fff"/>
  </g>
  <text x="91" y="113" font-size="14" font-weight="600" fill="#fff" text-anchor="middle">Telegram</text>
  <text x="91" y="127" font-size="11" fill="#fff" opacity="0.7" text-anchor="middle">Mobile / PC</text>

  <!-- Arrow: Telegram to Remoat -->
  <line x1="169" y1="78" x2="247" y2="78" stroke="#64748b" stroke-width="1.5" marker-end="url(#a)"/>
  <text x="208" y="72" font-size="10" fill="#64748b" text-anchor="middle">Prompts</text>
  <!-- Arrow: Remoat to Telegram -->
  <line x1="247" y1="102" x2="169" y2="102" stroke="#64748b" stroke-width="1.5" marker-end="url(#a)"/>
  <text x="208" y="118" font-size="10" fill="#64748b" text-anchor="middle">Results</text>

  <!-- Remoat -->
  <rect x="247" y="42" width="175" height="94" rx="10" fill="#e67e22"/>
  <text x="334" y="85" font-size="14" font-weight="600" fill="#fff" text-anchor="middle">Remoat</text>
  <text x="334" y="101" font-size="11" fill="#fff" opacity="0.7" text-anchor="middle">Local Bot</text>

  <!-- Arrow: Remoat to Antigravity -->
  <line x1="422" y1="74" x2="555" y2="74" stroke="#64748b" stroke-width="1.5" marker-end="url(#a)"/>
  <text x="489" y="67" font-size="10" fill="#64748b" text-anchor="middle">CDP / WebSocket</text>
  <!-- Arrow: Antigravity to Remoat -->
  <line x1="555" y1="104" x2="422" y2="104" stroke="#d97706" stroke-width="1.5" stroke-dasharray="5 3" marker-end="url(#b)"/>
  <text x="489" y="120" font-size="10" fill="#d97706" text-anchor="middle">DOM poll (2s)</text>

  <!-- Antigravity -->
  <rect x="555" y="42" width="185" height="94" rx="10" fill="#9b59b6"/>
  <text x="648" y="85" font-size="14" font-weight="600" fill="#fff" text-anchor="middle">Antigravity</text>
  <text x="648" y="101" font-size="11" fill="#fff" opacity="0.7" text-anchor="middle">AI Code Editor</text>

  <!-- Arrow: Remoat to SQLite -->
  <line x1="334" y1="136" x2="334" y2="170" stroke="#64748b" stroke-width="1.5" marker-end="url(#a)"/>
  <!-- Arrow: Antigravity to Local Files -->
  <line x1="648" y1="136" x2="648" y2="170" stroke="#64748b" stroke-width="1.5" marker-end="url(#a)"/>

  <!-- SQLite -->
  <rect x="280" y="170" width="108" height="40" rx="8" fill="#475569"/>
  <text x="334" y="195" font-size="13" font-weight="500" fill="#fff" text-anchor="middle">SQLite</text>

  <!-- Local Files -->
  <rect x="592" y="170" width="112" height="40" rx="8" fill="#475569"/>
  <text x="648" y="195" font-size="13" font-weight="500" fill="#fff" text-anchor="middle">Local Files</text>
</svg>
